<svg version="1.1" id="Layer_1" xmlns="http://www.w3.org/2000/svg" xmlns:xlink="http://www.w3.org/1999/xlink" x="0px" y="0px"
	 width="100%" viewBox="0 0 833 250" enable-background="new 0 0 833 250" xml:space="preserve">
<path fill="#9D0309" opacity="1.000000" stroke="none" 
	d="
M1.000004,226.000000 
	C1.000000,159.641754 1.000000,93.283516 1.346971,26.370142 
	C4.118994,18.587416 7.807900,12.126705 14.143814,7.696966 
	C17.846634,5.108150 22.031820,3.209270 26.000000,1.000000 
	C286.024902,1.000000 546.049805,1.000000 806.659058,1.361686 
	C812.608887,4.398161 818.983887,6.036431 823.074280,10.020396 
	C827.772217,14.596010 830.446594,21.249249 834.000000,27.000002 
	C834.000000,93.024910 834.000000,159.049820 833.652649,225.628937 
	C830.971069,233.055481 827.696228,239.504776 821.602661,243.623459 
	C817.120667,246.652817 811.894531,248.581055 807.000000,251.000000 
	C546.975098,251.000000 286.950195,251.000000 26.370819,250.652786 
	C14.236294,246.464859 6.074362,239.116531 2.178637,227.349716 
	C2.005588,226.827042 1.402689,226.446655 1.000004,226.000000 
M174.536652,115.031845 
	C170.603333,108.696571 166.670013,102.361298 162.717255,95.994713 
	C158.571793,102.815720 154.472733,109.222008 150.758698,115.844231 
	C149.347000,118.361343 147.887329,119.108276 144.987686,119.094780 
	C113.184792,118.946754 81.380898,118.981956 49.577511,119.060883 
	C48.095135,119.064568 45.858231,119.493637 45.254196,120.496468 
	C40.678986,128.092300 36.398979,135.867203 32.112526,143.633514 
	C31.732527,144.322006 31.598059,145.560165 31.963518,146.182480 
	C36.023285,153.095230 40.204231,159.936813 44.631599,167.259323 
	C48.547417,160.223404 52.466442,153.594437 55.943039,146.741028 
	C57.427204,143.815277 59.140614,142.901321 62.393017,142.915726 
	C93.862968,143.055008 125.334579,142.890671 156.803406,143.125015 
	C161.206467,143.157791 163.582733,141.879486 165.586121,138.045197 
	C169.027313,131.459091 173.043335,125.173325 176.827332,118.745728 
	C176.288406,117.849457 175.629837,116.754181 174.536652,115.031845 
M79.912735,108.285950 
	C82.143906,104.463615 84.648102,100.769821 86.525841,96.781105 
	C88.242180,93.135216 90.719284,91.914864 94.620102,91.940010 
	C114.448395,92.067871 134.277954,92.004311 154.107071,91.990746 
	C155.679657,91.989670 157.252151,91.858795 159.350876,91.764641 
	C155.551956,84.167175 152.137314,77.028046 148.357635,70.087723 
	C147.735092,68.944618 145.514313,68.095230 144.026520,68.086655 
	C122.198563,67.960838 100.369385,67.959282 78.541557,68.096634 
	C77.119225,68.105583 75.151588,69.117119 74.379875,70.284950 
	C70.142059,76.698051 66.108269,83.252754 62.224728,89.887779 
	C61.392128,91.310265 60.617626,93.742981 61.265495,94.896240 
	C65.262016,102.010376 69.673546,108.891380 74.292870,116.412872 
	C76.377724,113.458847 77.974945,111.195747 79.912735,108.285950 
M321.991425,66.999336 
	C318.727692,66.999336 315.463959,66.999336 312.283752,66.999336 
	C312.283752,86.999123 312.283752,106.388229 312.283752,125.786667 
	C315.970490,125.786667 319.361053,125.786667 323.217773,125.786667 
	C323.217773,111.066643 323.217773,96.712685 323.217773,81.879051 
	C324.361450,82.380936 325.059296,82.491554 325.468292,82.895004 
	C338.942413,96.187103 352.382446,109.513809 365.844391,122.818291 
	C368.868378,125.806885 378.641205,127.420334 382.083954,125.132790 
	C383.222351,124.376411 383.958649,122.215019 383.971802,120.688217 
	C384.110931,104.543945 383.868622,88.394218 384.184723,72.254875 
	C384.289795,66.890656 381.501556,67.056053 377.667572,66.891823 
	C373.463867,66.711769 371.752869,67.699608 371.892578,72.341423 
	C372.238007,83.816246 372.068085,95.307777 372.001099,106.791992 
	C371.994354,107.947777 371.465515,109.936852 370.848694,110.076088 
	C369.619629,110.353554 368.054199,109.829727 366.830536,109.225906 
	C365.841125,108.737663 365.149139,107.646721 364.325165,106.823219 
	C351.964508,94.469582 339.625885,82.093750 327.208099,69.797829 
	C326.010132,68.611618 324.321136,67.921303 321.991425,66.999336 
M408.297089,65.999695 
	C405.221710,65.999695 402.146362,65.999695 399.372620,65.999695 
	C399.372620,86.476547 399.372620,106.198677 399.372620,125.790489 
	C403.029785,125.790489 406.313904,125.790489 410.029785,125.790489 
	C410.029785,112.976463 409.980347,100.366875 410.097290,87.758812 
	C410.110748,86.310287 411.052704,84.870361 411.564178,83.426445 
	C413.174744,84.002365 415.223175,84.133827 416.328461,85.222664 
	C427.934479,96.655632 439.607056,108.036789 450.777802,119.887939 
	C455.143219,124.519287 459.601257,126.603386 465.946411,126.150490 
	C470.349762,125.836174 472.134613,124.612091 472.075684,120.008278 
	C471.877472,104.526581 472.000275,89.040771 472.000275,73.556541 
	C472.000275,71.119644 472.000275,68.682747 472.000275,66.300842 
	C468.361633,66.300842 465.294739,66.300842 462.000214,66.300842 
	C462.000214,79.564140 462.044861,92.529556 461.938141,105.493721 
	C461.926147,106.951134 461.227112,109.533394 460.553864,109.633965 
	C458.825897,109.892097 456.332642,109.660439 455.197754,108.549477 
	C441.760254,95.395004 428.366638,82.185944 415.374023,68.596832 
	C413.319153,66.447662 411.687408,65.885254 408.297089,65.999695 
M250.977341,66.002045 
	C236.386139,66.002045 221.794922,66.002045 207.331497,66.002045 
	C207.331497,70.698166 207.331497,74.763985 207.331497,78.999886 
	C208.980423,78.999886 210.299286,78.999924 211.618149,78.999886 
	C224.447739,78.999512 237.277557,78.957291 250.106812,79.023621 
	C254.079224,79.044167 257.025238,82.608757 257.017944,86.846474 
	C257.010254,91.334030 255.186676,93.254547 250.397705,93.096123 
	C240.744415,92.776756 231.073151,93.000725 221.409302,93.000603 
	C216.654572,93.000549 211.899826,93.000595 207.352081,93.000595 
	C207.352081,104.418060 207.352081,115.155807 207.352081,125.672272 
	C211.115173,125.672272 214.520447,125.672272 217.999084,125.672272 
	C217.999084,120.782661 218.296921,116.266281 217.917877,111.807449 
	C217.514282,107.059921 219.641373,105.857742 223.906754,105.946129 
	C232.567169,106.125580 241.236252,106.124878 249.897430,105.964706 
	C259.511444,105.786911 267.970917,97.139175 267.998077,87.742950 
	C268.027893,77.430115 262.398865,69.850761 250.977341,66.002045 
M579.220215,120.262688 
	C583.411194,124.696716 588.369141,126.490257 594.620056,126.124298 
	C603.083435,125.628822 611.609253,125.728317 620.085999,126.092636 
	C626.207336,126.355721 629.947266,122.126671 634.514038,119.470718 
	C635.393860,118.959023 635.403809,116.951729 636.005371,115.024567 
	C622.243408,115.024567 609.280151,114.853493 596.325989,115.123283 
	C592.152771,115.210197 589.372070,114.021683 586.635620,110.817497 
	C584.203064,107.969124 582.713928,105.344833 583.018799,101.543320 
	C583.310669,97.902710 583.138611,94.221405 583.101562,90.558678 
	C583.032043,83.696716 587.502075,79.015579 594.246826,79.006432 
	C606.402527,78.989952 618.558289,79.010406 630.713989,78.990044 
	C632.121277,78.987686 633.528259,78.824280 634.895081,78.738083 
	C634.987549,72.554497 627.839417,66.122894 620.939270,66.031754 
	C611.283020,65.904213 601.623596,65.974770 591.965942,66.033707 
	C590.886475,66.040306 589.752197,66.383308 588.740784,66.804359 
	C577.801147,71.358284 571.023071,81.448479 571.034180,93.071556 
	C571.037109,96.068855 571.068665,99.066635 571.027222,102.063370 
	C570.929565,109.134209 573.768433,114.958748 579.220215,120.262688 
M489.003601,122.702858 
	C490.071289,123.827675 491.236694,125.973137 492.187958,125.882088 
	C494.829437,125.629227 498.059723,127.677849 500.083649,123.848717 
	C504.983673,114.578049 510.136749,105.439003 515.302551,96.311806 
	C518.112732,91.346619 521.157043,86.513939 524.602966,80.777077 
	C532.250488,94.035835 539.401794,105.888435 545.957092,118.061966 
	C548.665894,123.092445 550.951782,127.558304 557.744690,126.073639 
	C559.011597,125.796730 560.307922,125.653915 561.590576,125.449226 
	C561.329956,124.075462 561.393188,122.526665 560.759644,121.354393 
	C552.390442,105.867325 543.380371,90.696228 535.714111,74.872665 
	C531.997742,67.201859 527.631470,64.011810 519.416748,66.521057 
	C513.603882,76.995636 507.602905,87.735336 501.675323,98.515381 
	C497.409790,106.272713 493.242126,114.083847 489.003601,122.702858 
M758.500122,91.000481 
	C751.413208,91.000481 744.326294,91.000481 737.322876,91.000481 
	C737.322876,103.049232 737.322876,114.437592 737.322876,125.999016 
	C755.937683,125.999016 774.230652,125.999054 792.523682,125.999001 
	C801.762329,125.998978 801.915771,125.827705 800.909180,116.438774 
	C800.877563,116.143188 800.619263,115.871895 800.180908,115.060226 
	C782.421753,115.060226 764.378235,115.060226 745.999634,115.060226 
	C745.999634,112.402466 745.987854,110.275345 746.001892,108.148392 
	C746.041077,102.186653 747.223999,101.000816 753.127136,100.999260 
	C763.613281,100.996490 774.101624,100.877510 784.584412,101.065201 
	C788.162292,101.129250 789.505981,99.747360 789.080261,96.389938 
	C788.666138,93.123840 787.267578,90.927612 783.468018,90.972412 
	C775.479736,91.066612 767.489441,91.000687 758.500122,91.000481 
M691.500000,125.999107 
	C699.152954,125.998909 706.806091,125.966873 714.458801,126.012680 
	C717.994812,126.033852 720.739380,125.419090 720.305542,120.871735 
	C719.946045,117.102844 718.694275,114.767700 714.267029,114.826569 
	C699.796936,115.018944 685.323425,114.970131 670.851257,114.980736 
	C669.927795,114.981415 669.004028,114.698471 668.029968,114.539215 
	C668.029968,100.620262 667.972778,86.982605 668.065735,73.345963 
	C668.092773,69.380974 667.792236,66.136803 662.629639,65.956039 
	C657.238464,65.767273 656.992065,69.241600 656.995178,73.130798 
	C657.008240,89.434891 656.995056,105.739014 657.010620,122.043106 
	C657.011841,123.301559 657.161011,124.559868 657.252930,125.999107 
	C668.573975,125.999107 679.536987,125.999107 691.500000,125.999107 
M400.574280,183.327667 
	C405.820435,180.709839 408.578949,176.662003 408.276245,170.606903 
	C408.077271,166.626816 407.702911,162.539276 408.352509,158.658081 
	C409.567871,151.396240 402.020599,144.061890 394.714813,143.895325 
	C387.903503,143.740036 381.070953,143.582504 374.274750,143.939636 
	C366.215485,144.363190 360.834106,150.358017 360.788544,158.294998 
	C360.763763,162.617325 360.805359,166.940002 360.790314,171.262436 
	C360.771027,176.802155 363.242310,180.891663 368.254547,183.118393 
	C370.574402,184.149002 373.248535,184.954529 375.744995,184.909851 
	C383.801056,184.765701 391.849213,184.179245 400.574280,183.327667 
M648.003601,179.537949 
	C649.411011,180.952499 650.582947,183.016190 652.280151,183.631775 
	C654.928040,184.592224 657.945679,184.889908 660.776917,184.769455 
	C661.618652,184.733627 663.023193,182.365448 663.044189,181.048065 
	C663.219055,170.055817 663.323425,159.051788 662.890808,148.073334 
	C662.833374,146.615952 659.743408,144.414230 657.867554,144.196335 
	C656.619080,144.051361 654.489197,146.591949 653.752380,148.349228 
	C653.040100,150.047821 653.610535,152.282791 653.611267,154.282166 
	C653.613220,159.786240 653.611938,165.290314 653.611938,171.998138 
	C648.547546,167.256592 644.554749,163.517258 640.560730,159.779266 
	C635.578979,155.116882 630.820190,150.172913 625.491516,145.947922 
	C623.637573,144.477921 620.326050,144.315964 617.781067,144.569290 
	C617.012268,144.645813 616.108582,148.119186 616.076538,150.050034 
	C615.907715,160.211868 616.084045,170.379120 615.951538,180.542038 
	C615.906067,184.026474 617.224060,185.090012 620.674316,185.111298 
	C624.521118,185.135010 625.003418,183.032562 625.002502,180.122360 
	C625.000183,172.918472 625.001709,165.714584 625.001709,157.546860 
	C633.092529,165.269989 640.297607,172.147537 648.003601,179.537949 
M515.995850,170.486771 
	C515.996094,173.819336 516.193542,177.166641 515.945984,180.480698 
	C515.647156,184.481674 517.625549,185.360413 521.077087,185.028473 
	C524.824585,184.668091 524.952698,181.949066 524.979980,179.252869 
	C525.050049,172.331360 525.003418,165.408661 525.003418,157.369217 
	C533.997742,165.864517 542.456482,173.301056 550.205261,181.415558 
	C553.856628,185.239243 557.431091,185.468124 562.004028,184.607117 
	C562.004028,172.163696 562.051208,160.012222 561.933655,147.862335 
	C561.921387,146.597260 561.112122,144.411987 560.361145,144.266953 
	C558.564026,143.919907 556.118225,143.937653 554.815857,144.946335 
	C553.723328,145.792465 553.567444,148.241638 553.533569,149.991455 
	C553.400269,156.875671 553.478943,163.763992 553.478943,171.672043 
	C551.604980,170.012650 550.386169,168.989151 549.229187,167.899902 
	C541.590759,160.708344 534.155640,153.281357 526.204407,146.455154 
	C524.182739,144.719467 520.547424,144.597397 517.620239,144.463882 
	C517.171692,144.443436 516.142273,148.372940 516.071777,150.498489 
	C515.861938,156.823441 515.996094,163.159790 515.995850,170.486771 
M697.500671,175.992249 
	C693.010010,175.980316 688.519287,175.959274 684.028625,175.959396 
	C680.535828,175.959488 678.840088,174.341034 678.984619,170.742920 
	C679.131470,167.088852 679.047913,163.426163 679.132996,159.768829 
	C679.273682,153.721039 680.504639,152.478867 686.529053,152.401443 
	C694.176453,152.303177 701.824707,152.234695 709.472595,152.238739 
	C712.360535,152.240265 715.212585,151.853836 715.294312,148.379211 
	C715.378906,144.781860 712.635437,143.841782 709.456665,143.852951 
	C700.974487,143.882751 692.490356,143.977356 684.010437,143.836777 
	C676.441711,143.711319 667.721130,151.264923 668.924194,159.488037 
	C669.353088,162.419205 668.992371,165.465851 668.992493,168.459778 
	C668.992859,179.054550 674.262573,184.584976 684.886475,184.817032 
	C692.700256,184.987717 700.520874,184.936890 708.337341,184.861801 
	C715.587219,184.792160 716.707336,182.804443 713.386658,175.992142 
	C708.469727,175.992142 703.483459,175.992142 697.500671,175.992249 
M308.421722,170.006027 
	C308.465668,163.344559 308.436279,156.681488 308.583710,150.022308 
	C308.659943,146.579803 307.843506,143.921494 303.856140,143.880661 
	C299.889160,143.840027 298.335358,146.095230 298.442993,149.981827 
	C298.622772,156.473679 298.375580,162.981735 298.696045,169.463806 
	C298.914429,173.880829 297.093201,176.164490 292.849548,176.285858 
	C287.192322,176.447647 281.518372,176.477600 275.866730,176.225647 
	C272.055878,176.055771 269.880249,174.171295 270.051941,169.802612 
	C270.333038,162.650818 270.188538,155.480652 270.149323,148.318649 
	C270.132446,145.240143 268.374054,143.739838 265.371399,143.856781 
	C262.432709,143.971237 260.899200,145.377411 260.951050,148.582169 
	C261.080322,156.575974 260.861755,164.576630 261.059570,172.567688 
	C261.228790,179.402359 266.079498,183.945328 272.904114,183.997620 
	C279.900024,184.051208 286.896667,184.010788 293.892975,184.009903 
	C303.416168,184.008698 307.547882,180.272598 308.421722,170.006027 
M592.133301,144.248230 
	C588.151733,142.509079 585.176392,143.392609 582.985291,147.330612 
	C576.915833,158.239212 570.682190,169.056427 564.597900,179.956879 
	C563.434143,182.041809 563.310669,184.462097 566.297852,184.888138 
	C569.791565,185.386444 573.028320,185.607391 575.226196,181.150513 
	C579.161682,173.169998 584.039978,165.654404 588.815002,157.444489 
	C589.829224,158.781067 590.493958,159.486435 590.964478,160.303604 
	C595.241516,167.731247 599.602051,175.114670 603.691467,182.644989 
	C605.958618,186.819748 609.513367,184.388977 612.505676,184.865799 
	C612.647888,182.660919 613.346191,180.302597 612.790771,178.290253 
	C612.105103,175.805527 610.463135,173.555923 609.084290,171.296356 
	C603.660034,162.407867 598.176880,153.555344 592.133301,144.248230 
M222.524460,158.968140 
	C218.315735,167.116837 211.697662,174.068451 210.166245,184.170959 
	C213.729294,183.838989 218.237518,183.815460 219.768753,181.668594 
	C224.517822,175.010269 228.115402,167.533386 232.217285,160.407227 
	C232.732803,159.511627 233.775330,158.062057 234.254105,158.178879 
	C235.290375,158.431747 236.418961,159.356979 236.985550,160.316681 
	C241.217453,167.485168 245.592514,174.591782 249.351303,182.007416 
	C251.235077,185.723877 254.010513,185.676804 256.666992,184.574463 
	C259.564484,183.372116 259.847748,180.307327 258.355835,177.756302 
	C252.093918,167.049118 245.734406,156.396271 239.220932,145.840607 
	C237.248840,142.644684 232.144119,142.430145 230.348663,145.323318 
	C227.718369,149.561691 225.402344,153.995117 222.524460,158.968140 
M731.725586,159.954071 
	C723.674927,160.106430 722.994385,160.802597 722.997803,168.877365 
	C722.999084,171.873108 722.989075,174.868866 723.000122,177.864578 
	C723.020752,183.464508 724.472900,184.984222 729.932312,184.995926 
	C740.250916,185.018051 750.570251,184.937210 760.888000,185.036865 
	C764.601318,185.072739 768.015198,184.255936 767.835999,180.023605 
	C767.661621,175.907806 763.691467,176.621506 760.927673,176.577713 
	C752.609680,176.445908 744.280823,176.327164 735.971863,176.630829 
	C732.652283,176.752136 732.000366,175.475037 731.943726,172.655319 
	C731.886719,169.815536 733.023499,168.865021 735.803711,168.956619 
	C740.791199,169.120911 745.787964,169.010361 750.780884,168.999847 
	C754.379639,168.992264 757.840942,167.959503 757.833557,163.888306 
	C757.826416,159.922668 754.169312,159.963608 751.151489,159.956955 
	C744.993591,159.943375 738.835632,159.954163 731.725586,159.954071 
M758.500244,66.000877 
	C752.517944,66.001617 746.532410,65.881317 740.554443,66.042595 
	C736.024109,66.164825 735.292480,69.529716 734.984497,73.174927 
	C734.626343,77.414520 737.486450,77.010544 740.209473,77.007996 
	C759.319519,76.990120 778.429626,77.004280 797.539673,76.983719 
	C798.638306,76.982536 799.736633,76.767067 800.676270,76.668060 
	C800.676270,72.947014 800.676270,69.555641 800.676270,66.000877 
	C786.725525,66.000877 773.112793,66.000877 758.500244,66.000877 
M339.004852,159.565887 
	C339.004852,157.132004 339.004852,154.698120 339.004852,151.992874 
	C343.035278,151.992874 346.505341,152.025452 349.974487,151.982819 
	C352.873138,151.947189 356.642487,152.798248 356.564392,148.197556 
	C356.490173,143.823990 353.005554,143.710770 349.659363,143.721939 
	C339.838776,143.754715 330.017944,143.707001 320.197266,143.723953 
	C318.704254,143.726532 317.103638,143.604080 315.749725,144.089111 
	C314.451416,144.554260 312.756165,145.553955 312.452362,146.654633 
	C312.189667,147.606384 313.399170,149.811630 314.368164,150.104324 
	C317.897095,151.170212 321.584991,152.140106 325.237915,152.240875 
	C328.716675,152.336884 329.899780,153.202896 329.741333,156.816391 
	C329.413544,164.292877 329.494202,171.790497 329.540955,179.278595 
	C329.560242,182.366394 329.968353,184.971054 334.325684,185.129822 
	C338.900543,185.296494 339.054565,182.798309 339.021820,179.524139 
	C338.958588,173.199371 339.004303,166.873505 339.004852,159.565887 
M293.979645,100.500000 
	C293.979645,89.412483 293.979645,78.324966 293.979645,67.302399 
	C290.353638,67.302399 287.289642,67.302399 284.285645,67.302399 
	C284.285645,86.989670 284.285645,106.373581 284.285645,125.698853 
	C287.644867,125.698853 290.711182,125.698853 293.979614,125.698853 
	C293.979614,117.432808 293.979614,109.466400 293.979645,100.500000 
M456.173309,160.144226 
	C451.075134,161.182373 448.359161,163.912827 448.925720,169.498230 
	C449.258759,172.781677 449.003510,176.126602 448.982086,179.443680 
	C448.961670,182.601349 449.100342,185.122604 453.584839,185.146713 
	C458.045654,185.170654 458.434387,182.903976 458.226715,179.532730 
	C458.084198,177.219009 458.261047,174.882141 458.057465,172.576584 
	C457.832336,170.026810 458.794769,168.889160 461.369507,168.872314 
	C465.014252,168.848495 468.657745,168.665894 472.302277,168.571091 
	C475.420898,168.489960 478.800537,168.303574 478.679291,164.153900 
	C478.572479,160.498917 475.401459,159.942368 472.475220,159.911636 
	C467.336487,159.857712 462.195618,160.003799 456.173309,160.144226 
M732.822266,153.001923 
	C742.154785,153.001953 751.488342,152.920959 760.819336,153.041855 
	C764.556274,153.090256 767.831116,152.112885 767.843994,148.045563 
	C767.857544,143.752747 764.030334,143.762985 760.830627,143.750595 
	C750.498657,143.710587 740.162354,143.565201 729.837830,143.840591 
	C727.706482,143.897446 725.618835,145.594269 723.511047,146.535248 
	C724.898804,148.430832 726.063599,150.570816 727.764954,152.122635 
	C728.665161,152.943802 730.498718,152.741882 732.822266,153.001923 
M506.000549,153.620941 
	C506.000305,152.128128 505.912323,150.629028 506.018463,149.143814 
	C506.225647,146.244614 505.325439,144.168259 502.114136,144.052277 
	C498.894653,143.935989 497.101318,145.899887 497.060150,148.888397 
	C496.916290,159.336090 496.941193,169.787674 497.046570,180.236313 
	C497.078308,183.384018 499.358032,184.288208 502.132538,184.329407 
	C505.125336,184.373856 506.097015,182.886490 506.048828,179.965912 
	C505.909271,171.508926 506.000214,163.048141 506.000549,153.620941 
M469.499023,143.735123 
	C463.184753,143.767395 456.860352,143.613068 450.562988,143.955963 
	C448.873077,144.047989 447.265625,145.654739 445.620331,146.566147 
	C446.677338,148.080124 447.525177,149.829361 448.867310,151.022675 
	C449.716400,151.777679 451.301178,151.954361 452.558624,151.961945 
	C463.359924,152.027252 474.162109,151.954147 484.963440,152.018631 
	C487.843628,152.035828 490.479767,151.115799 489.875397,148.090149 
	C489.539581,146.408722 486.802368,144.258179 484.929932,144.018524 
	C480.184784,143.411179 475.316864,143.763214 469.499023,143.735123 
z"/>
<path fill="#FDFBFB" opacity="1.000000" stroke="none" 
	d="
M834.000000,26.531336 
	C830.446594,21.249249 827.772217,14.596010 823.074280,10.020396 
	C818.983887,6.036431 812.608887,4.398161 807.121704,1.361686 
	C815.925049,1.000000 824.850037,1.000000 834.000000,1.000000 
	C834.000000,9.352880 834.000000,17.707775 834.000000,26.531336 
z"/>
<path fill="#FDFBFB" opacity="1.000000" stroke="none" 
	d="
M807.468628,251.000000 
	C811.894531,248.581055 817.120667,246.652817 821.602661,243.623459 
	C827.696228,239.504776 830.971069,233.055481 833.652649,226.091553 
	C834.000000,234.262573 834.000000,242.525131 834.000000,251.000000 
	C825.313599,251.000000 816.625427,251.000000 807.468628,251.000000 
z"/>
<path fill="#FDFBFB" opacity="1.000000" stroke="none" 
	d="
M1.000004,226.468658 
	C1.402689,226.446655 2.005588,226.827042 2.178637,227.349716 
	C6.074362,239.116531 14.236294,246.464859 25.908180,250.652786 
	C17.740294,251.000000 9.480589,251.000000 1.000000,251.000000 
	C1.000000,242.980469 1.000000,234.958908 1.000004,226.468658 
z"/>
<path fill="#FDFBFB" opacity="1.000000" stroke="none" 
	d="
M25.531321,1.000000 
	C22.031820,3.209270 17.846634,5.108150 14.143814,7.696966 
	C7.807900,12.126705 4.118994,18.587416 1.346971,25.907503 
	C1.000000,17.740295 1.000000,9.480593 1.000000,1.000000 
	C9.019533,1.000000 17.041086,1.000000 25.531321,1.000000 
z"/>
<path fill="#FFFEFE" opacity="1.000000" stroke="none" 
	d="
M174.753952,115.345367 
	C175.629837,116.754181 176.288406,117.849457 176.827332,118.745728 
	C173.043335,125.173325 169.027313,131.459091 165.586121,138.045197 
	C163.582733,141.879486 161.206467,143.157791 156.803406,143.125015 
	C125.334579,142.890671 93.862968,143.055008 62.393017,142.915726 
	C59.140614,142.901321 57.427204,143.815277 55.943039,146.741028 
	C52.466442,153.594437 48.547417,160.223404 44.631599,167.259323 
	C40.204231,159.936813 36.023285,153.095230 31.963518,146.182480 
	C31.598059,145.560165 31.732527,144.322006 32.112526,143.633514 
	C36.398979,135.867203 40.678986,128.092300 45.254196,120.496468 
	C45.858231,119.493637 48.095135,119.064568 49.577511,119.060883 
	C81.380898,118.981956 113.184792,118.946754 144.987686,119.094780 
	C147.887329,119.108276 149.347000,118.361343 150.758698,115.844231 
	C154.472733,109.222008 158.571793,102.815720 162.717255,95.994713 
	C166.670013,102.361298 170.603333,108.696571 174.753952,115.345367 
z"/>
<path fill="#FEFEFE" opacity="1.000000" stroke="none" 
	d="
M79.742447,108.609299 
	C77.974945,111.195747 76.377724,113.458847 74.292870,116.412872 
	C69.673546,108.891380 65.262016,102.010376 61.265495,94.896240 
	C60.617626,93.742981 61.392128,91.310265 62.224728,89.887779 
	C66.108269,83.252754 70.142059,76.698051 74.379875,70.284950 
	C75.151588,69.117119 77.119225,68.105583 78.541557,68.096634 
	C100.369385,67.959282 122.198563,67.960838 144.026520,68.086655 
	C145.514313,68.095230 147.735092,68.944618 148.357635,70.087723 
	C152.137314,77.028046 155.551956,84.167175 159.350876,91.764641 
	C157.252151,91.858795 155.679657,91.989670 154.107071,91.990746 
	C134.277954,92.004311 114.448395,92.067871 94.620102,91.940010 
	C90.719284,91.914864 88.242180,93.135216 86.525841,96.781105 
	C84.648102,100.769821 82.143906,104.463615 79.742447,108.609299 
z"/>
<path fill="#FEFEFE" opacity="1.000000" stroke="none" 
	d="
M322.425751,67.000061 
	C324.321136,67.921303 326.010132,68.611618 327.208099,69.797829 
	C339.625885,82.093750 351.964508,94.469582 364.325165,106.823219 
	C365.149139,107.646721 365.841125,108.737663 366.830536,109.225906 
	C368.054199,109.829727 369.619629,110.353554 370.848694,110.076088 
	C371.465515,109.936852 371.994354,107.947777 372.001099,106.791992 
	C372.068085,95.307777 372.238007,83.816246 371.892578,72.341423 
	C371.752869,67.699608 373.463867,66.711769 377.667572,66.891823 
	C381.501556,67.056053 384.289795,66.890656 384.184723,72.254875 
	C383.868622,88.394218 384.110931,104.543945 383.971802,120.688217 
	C383.958649,122.215019 383.222351,124.376411 382.083954,125.132790 
	C378.641205,127.420334 368.868378,125.806885 365.844391,122.818291 
	C352.382446,109.513809 338.942413,96.187103 325.468292,82.895004 
	C325.059296,82.491554 324.361450,82.380936 323.217773,81.879051 
	C323.217773,96.712685 323.217773,111.066643 323.217773,125.786667 
	C319.361053,125.786667 315.970490,125.786667 312.283752,125.786667 
	C312.283752,106.388229 312.283752,86.999123 312.283752,66.999336 
	C315.463959,66.999336 318.727692,66.999336 322.425751,67.000061 
z"/>
<path fill="#FEFEFE" opacity="1.000000" stroke="none" 
	d="
M408.756287,65.999786 
	C411.687408,65.885254 413.319153,66.447662 415.374023,68.596832 
	C428.366638,82.185944 441.760254,95.395004 455.197754,108.549477 
	C456.332642,109.660439 458.825897,109.892097 460.553864,109.633965 
	C461.227112,109.533394 461.926147,106.951134 461.938141,105.493721 
	C462.044861,92.529556 462.000214,79.564140 462.000214,66.300842 
	C465.294739,66.300842 468.361633,66.300842 472.000275,66.300842 
	C472.000275,68.682747 472.000275,71.119644 472.000275,73.556541 
	C472.000275,89.040771 471.877472,104.526581 472.075684,120.008278 
	C472.134613,124.612091 470.349762,125.836174 465.946411,126.150490 
	C459.601257,126.603386 455.143219,124.519287 450.777802,119.887939 
	C439.607056,108.036789 427.934479,96.655632 416.328461,85.222664 
	C415.223175,84.133827 413.174744,84.002365 411.564178,83.426445 
	C411.052704,84.870361 410.110748,86.310287 410.097290,87.758812 
	C409.980347,100.366875 410.029785,112.976463 410.029785,125.790489 
	C406.313904,125.790489 403.029785,125.790489 399.372620,125.790489 
	C399.372620,106.198677 399.372620,86.476547 399.372620,65.999695 
	C402.146362,65.999695 405.221710,65.999695 408.756287,65.999786 
z"/>
<path fill="#FFFFFE" opacity="1.000000" stroke="none" 
	d="
M251.418976,66.008133 
	C262.398865,69.850761 268.027893,77.430115 267.998077,87.742950 
	C267.970917,97.139175 259.511444,105.786911 249.897430,105.964706 
	C241.236252,106.124878 232.567169,106.125580 223.906754,105.946129 
	C219.641373,105.857742 217.514282,107.059921 217.917877,111.807449 
	C218.296921,116.266281 217.999084,120.782661 217.999084,125.672272 
	C214.520447,125.672272 211.115173,125.672272 207.352081,125.672272 
	C207.352081,115.155807 207.352081,104.418060 207.352081,93.000595 
	C211.899826,93.000595 216.654572,93.000549 221.409302,93.000603 
	C231.073151,93.000725 240.744415,92.776756 250.397705,93.096123 
	C255.186676,93.254547 257.010254,91.334030 257.017944,86.846474 
	C257.025238,82.608757 254.079224,79.044167 250.106812,79.023621 
	C237.277557,78.957291 224.447739,78.999512 211.618149,78.999886 
	C210.299286,78.999924 208.980423,78.999886 207.331497,78.999886 
	C207.331497,74.763985 207.331497,70.698166 207.331497,66.002045 
	C221.794922,66.002045 236.386139,66.002045 251.418976,66.008133 
z"/>
<path fill="#FEFEFE" opacity="1.000000" stroke="none" 
	d="
M578.881226,120.120674 
	C573.768433,114.958748 570.929565,109.134209 571.027222,102.063370 
	C571.068665,99.066635 571.037109,96.068855 571.034180,93.071556 
	C571.023071,81.448479 577.801147,71.358284 588.740784,66.804359 
	C589.752197,66.383308 590.886475,66.040306 591.965942,66.033707 
	C601.623596,65.974770 611.283020,65.904213 620.939270,66.031754 
	C627.839417,66.122894 634.987549,72.554497 634.895081,78.738083 
	C633.528259,78.824280 632.121277,78.987686 630.713989,78.990044 
	C618.558289,79.010406 606.402527,78.989952 594.246826,79.006432 
	C587.502075,79.015579 583.032043,83.696716 583.101562,90.558678 
	C583.138611,94.221405 583.310669,97.902710 583.018799,101.543320 
	C582.713928,105.344833 584.203064,107.969124 586.635620,110.817497 
	C589.372070,114.021683 592.152771,115.210197 596.325989,115.123283 
	C609.280151,114.853493 622.243408,115.024567 636.005371,115.024567 
	C635.403809,116.951729 635.393860,118.959023 634.514038,119.470718 
	C629.947266,122.126671 626.207336,126.355721 620.085999,126.092636 
	C611.609253,125.728317 603.083435,125.628822 594.620056,126.124298 
	C588.369141,126.490257 583.411194,124.696716 578.881226,120.120674 
z"/>
<path fill="#FEFEFE" opacity="1.000000" stroke="none" 
	d="
M489.017212,122.286911 
	C493.242126,114.083847 497.409790,106.272713 501.675323,98.515381 
	C507.602905,87.735336 513.603882,76.995636 519.416748,66.521057 
	C527.631470,64.011810 531.997742,67.201859 535.714111,74.872665 
	C543.380371,90.696228 552.390442,105.867325 560.759644,121.354393 
	C561.393188,122.526665 561.329956,124.075462 561.590576,125.449219 
	C560.307922,125.653915 559.011597,125.796730 557.744690,126.073639 
	C550.951782,127.558304 548.665894,123.092445 545.957092,118.061966 
	C539.401794,105.888435 532.250488,94.035835 524.602966,80.777077 
	C521.157043,86.513939 518.112732,91.346619 515.302551,96.311806 
	C510.136749,105.439003 504.983673,114.578049 500.083649,123.848717 
	C498.059723,127.677849 494.829437,125.629227 492.187958,125.882088 
	C491.236694,125.973137 490.071289,123.827675 489.017212,122.286911 
z"/>
<path fill="#FFFFFF" opacity="1.000000" stroke="none" 
	d="
M759.000061,91.000481 
	C767.489441,91.000687 775.479736,91.066612 783.468018,90.972412 
	C787.267578,90.927612 788.666138,93.123840 789.080261,96.389938 
	C789.505981,99.747360 788.162292,101.129250 784.584412,101.065201 
	C774.101624,100.877510 763.613281,100.996490 753.127136,100.999260 
	C747.223999,101.000816 746.041077,102.186653 746.001892,108.148392 
	C745.987854,110.275345 745.999634,112.402466 745.999634,115.060226 
	C764.378235,115.060226 782.421753,115.060226 800.180908,115.060226 
	C800.619263,115.871895 800.877563,116.143188 800.909180,116.438774 
	C801.915771,125.827705 801.762329,125.998978 792.523682,125.999001 
	C774.230652,125.999054 755.937683,125.999016 737.322876,125.999016 
	C737.322876,114.437592 737.322876,103.049232 737.322876,91.000481 
	C744.326294,91.000481 751.413208,91.000481 759.000061,91.000481 
z"/>
<path fill="#FFFFFF" opacity="1.000000" stroke="none" 
	d="
M691.000000,125.999107 
	C679.536987,125.999107 668.573975,125.999107 657.252930,125.999107 
	C657.161011,124.559868 657.011841,123.301559 657.010620,122.043106 
	C656.995056,105.739014 657.008240,89.434891 656.995178,73.130798 
	C656.992065,69.241600 657.238464,65.767273 662.629639,65.956039 
	C667.792236,66.136803 668.092773,69.380974 668.065735,73.345963 
	C667.972778,86.982605 668.029968,100.620262 668.029968,114.539215 
	C669.004028,114.698471 669.927795,114.981415 670.851257,114.980736 
	C685.323425,114.970131 699.796936,115.018944 714.267029,114.826569 
	C718.694275,114.767700 719.946045,117.102844 720.305542,120.871735 
	C720.739380,125.419090 717.994812,126.033852 714.458801,126.012680 
	C706.806091,125.966873 699.152954,125.998909 691.000000,125.999107 
z"/>
<path fill="#FBF9F9" opacity="1.000000" stroke="none" 
	d="
M400.237366,183.545471 
	C391.849213,184.179245 383.801056,184.765701 375.744995,184.909851 
	C373.248535,184.954529 370.574402,184.149002 368.254547,183.118393 
	C363.242310,180.891663 360.771027,176.802155 360.790314,171.262436 
	C360.805359,166.940002 360.763763,162.617325 360.788544,158.294998 
	C360.834106,150.358017 366.215485,144.363190 374.274750,143.939636 
	C381.070953,143.582504 387.903503,143.740036 394.714813,143.895325 
	C402.020599,144.061890 409.567871,151.396240 408.352509,158.658081 
	C407.702911,162.539276 408.077271,166.626816 408.276245,170.606903 
	C408.578949,176.662003 405.820435,180.709839 400.237366,183.545471 
M388.403290,152.735947 
	C384.578644,152.735687 380.751709,152.650620 376.929962,152.755798 
	C371.705231,152.899612 370.130524,154.587021 370.138855,159.705673 
	C370.144257,163.031052 370.253113,166.362656 370.089935,169.680359 
	C369.868378,174.184326 372.220978,176.067184 376.366791,176.180466 
	C379.856232,176.275833 383.350342,176.197723 386.842407,176.197647 
	C398.424316,176.197403 398.424377,176.197632 398.454315,164.929245 
	C398.456970,163.931519 398.453094,162.933762 398.460785,161.936081 
	C398.530029,152.945755 398.334869,152.747818 388.403290,152.735947 
z"/>
<path fill="#FEFDFD" opacity="1.000000" stroke="none" 
	d="
M647.753113,179.281525 
	C640.297607,172.147537 633.092529,165.269989 625.001709,157.546860 
	C625.001709,165.714584 625.000183,172.918472 625.002502,180.122360 
	C625.003418,183.032562 624.521118,185.135010 620.674316,185.111298 
	C617.224060,185.090012 615.906067,184.026474 615.951538,180.542038 
	C616.084045,170.379120 615.907715,160.211868 616.076538,150.050034 
	C616.108582,148.119186 617.012268,144.645813 617.781067,144.569290 
	C620.326050,144.315964 623.637573,144.477921 625.491516,145.947922 
	C630.820190,150.172913 635.578979,155.116882 640.560730,159.779266 
	C644.554749,163.517258 648.547546,167.256592 653.611938,171.998138 
	C653.611938,165.290314 653.613220,159.786240 653.611267,154.282166 
	C653.610535,152.282791 653.040100,150.047821 653.752380,148.349228 
	C654.489197,146.591949 656.619080,144.051361 657.867554,144.196335 
	C659.743408,144.414230 662.833374,146.615952 662.890808,148.073334 
	C663.323425,159.051788 663.219055,170.055817 663.044189,181.048065 
	C663.023193,182.365448 661.618652,184.733627 660.776917,184.769455 
	C657.945679,184.889908 654.928040,184.592224 652.280151,183.631775 
	C650.582947,183.016190 649.411011,180.952499 647.753113,179.281525 
z"/>
<path fill="#FDFCFC" opacity="1.000000" stroke="none" 
	d="
M515.995850,169.989227 
	C515.996094,163.159790 515.861938,156.823441 516.071777,150.498489 
	C516.142273,148.372940 517.171692,144.443436 517.620239,144.463882 
	C520.547424,144.597397 524.182739,144.719467 526.204407,146.455154 
	C534.155640,153.281357 541.590759,160.708344 549.229187,167.899902 
	C550.386169,168.989151 551.604980,170.012650 553.478943,171.672043 
	C553.478943,163.763992 553.400269,156.875671 553.533569,149.991455 
	C553.567444,148.241638 553.723328,145.792465 554.815857,144.946335 
	C556.118225,143.937653 558.564026,143.919907 560.361145,144.266953 
	C561.112122,144.411987 561.921387,146.597260 561.933655,147.862335 
	C562.051208,160.012222 562.004028,172.163696 562.004028,184.607117 
	C557.431091,185.468124 553.856628,185.239243 550.205261,181.415558 
	C542.456482,173.301056 533.997742,165.864517 525.003418,157.369217 
	C525.003418,165.408661 525.050049,172.331360 524.979980,179.252869 
	C524.952698,181.949066 524.824585,184.668091 521.077087,185.028473 
	C517.625549,185.360413 515.647156,184.481674 515.945984,180.480698 
	C516.193542,177.166641 515.996094,173.819336 515.995850,169.989227 
z"/>
<path fill="#FCFBFB" opacity="1.000000" stroke="none" 
	d="
M697.998901,175.992188 
	C703.483459,175.992142 708.469727,175.992142 713.386658,175.992142 
	C716.707336,182.804443 715.587219,184.792160 708.337341,184.861801 
	C700.520874,184.936890 692.700256,184.987717 684.886475,184.817032 
	C674.262573,184.584976 668.992859,179.054550 668.992493,168.459778 
	C668.992371,165.465851 669.353088,162.419205 668.924194,159.488037 
	C667.721130,151.264923 676.441711,143.711319 684.010437,143.836777 
	C692.490356,143.977356 700.974487,143.882751 709.456665,143.852951 
	C712.635437,143.841782 715.378906,144.781860 715.294312,148.379211 
	C715.212585,151.853836 712.360535,152.240265 709.472595,152.238739 
	C701.824707,152.234695 694.176453,152.303177 686.529053,152.401443 
	C680.504639,152.478867 679.273682,153.721039 679.132996,159.768829 
	C679.047913,163.426163 679.131470,167.088852 678.984619,170.742920 
	C678.840088,174.341034 680.535828,175.959488 684.028625,175.959396 
	C688.519287,175.959274 693.010010,175.980316 697.998901,175.992188 
z"/>
<path fill="#FCFAF9" opacity="1.000000" stroke="none" 
	d="
M308.412170,170.449005 
	C307.547882,180.272598 303.416168,184.008698 293.892975,184.009903 
	C286.896667,184.010788 279.900024,184.051208 272.904114,183.997620 
	C266.079498,183.945328 261.228790,179.402359 261.059570,172.567688 
	C260.861755,164.576630 261.080322,156.575974 260.951050,148.582169 
	C260.899200,145.377411 262.432709,143.971237 265.371399,143.856781 
	C268.374054,143.739838 270.132446,145.240143 270.149323,148.318649 
	C270.188538,155.480652 270.333038,162.650818 270.051941,169.802612 
	C269.880249,174.171295 272.055878,176.055771 275.866730,176.225647 
	C281.518372,176.477600 287.192322,176.447647 292.849548,176.285858 
	C297.093201,176.164490 298.914429,173.880829 298.696045,169.463806 
	C298.375580,162.981735 298.622772,156.473679 298.442993,149.981827 
	C298.335358,146.095230 299.889160,143.840027 303.856140,143.880661 
	C307.843506,143.921494 308.659943,146.579803 308.583710,150.022308 
	C308.436279,156.681488 308.465668,163.344559 308.412170,170.449005 
z"/>
<path fill="#FCFBFB" opacity="1.000000" stroke="none" 
	d="
M592.424438,144.468842 
	C598.176880,153.555344 603.660034,162.407867 609.084290,171.296356 
	C610.463135,173.555923 612.105103,175.805527 612.790771,178.290253 
	C613.346191,180.302597 612.647888,182.660919 612.505676,184.865799 
	C609.513367,184.388977 605.958618,186.819748 603.691467,182.644989 
	C599.602051,175.114670 595.241516,167.731247 590.964478,160.303604 
	C590.493958,159.486435 589.829224,158.781067 588.815002,157.444489 
	C584.039978,165.654404 579.161682,173.169998 575.226196,181.150513 
	C573.028320,185.607391 569.791565,185.386444 566.297852,184.888138 
	C563.310669,184.462097 563.434143,182.041809 564.597900,179.956879 
	C570.682190,169.056427 576.915833,158.239212 582.985291,147.330612 
	C585.176392,143.392609 588.151733,142.509079 592.424438,144.468842 
z"/>
<path fill="#FDFCFC" opacity="1.000000" stroke="none" 
	d="
M222.738434,158.656784 
	C225.402344,153.995117 227.718369,149.561691 230.348663,145.323318 
	C232.144119,142.430145 237.248840,142.644684 239.220932,145.840607 
	C245.734406,156.396271 252.093918,167.049118 258.355835,177.756302 
	C259.847748,180.307327 259.564484,183.372116 256.666992,184.574463 
	C254.010513,185.676804 251.235077,185.723877 249.351303,182.007416 
	C245.592514,174.591782 241.217453,167.485168 236.985550,160.316681 
	C236.418961,159.356979 235.290375,158.431747 234.254105,158.178879 
	C233.775330,158.062057 232.732803,159.511627 232.217285,160.407227 
	C228.115402,167.533386 224.517822,175.010269 219.768753,181.668594 
	C218.237518,183.815460 213.729294,183.838989 210.166245,184.170959 
	C211.697662,174.068451 218.315735,167.116837 222.738434,158.656784 
z"/>
<path fill="#FEFDFD" opacity="1.000000" stroke="none" 
	d="
M732.201660,159.954498 
	C738.835632,159.954163 744.993591,159.943375 751.151489,159.956955 
	C754.169312,159.963608 757.826416,159.922668 757.833557,163.888306 
	C757.840942,167.959503 754.379639,168.992264 750.780884,168.999847 
	C745.787964,169.010361 740.791199,169.120911 735.803711,168.956619 
	C733.023499,168.865021 731.886719,169.815536 731.943726,172.655319 
	C732.000366,175.475037 732.652283,176.752136 735.971863,176.630829 
	C744.280823,176.327164 752.609680,176.445908 760.927673,176.577713 
	C763.691467,176.621506 767.661621,175.907806 767.835999,180.023605 
	C768.015198,184.255936 764.601318,185.072739 760.888000,185.036865 
	C750.570251,184.937210 740.250916,185.018051 729.932312,184.995926 
	C724.472900,184.984222 723.020752,183.464508 723.000122,177.864578 
	C722.989075,174.868866 722.999084,171.873108 722.997803,168.877365 
	C722.994385,160.802597 723.674927,160.106430 732.201660,159.954498 
z"/>
<path fill="#FFFFFF" opacity="1.000000" stroke="none" 
	d="
M759.000183,66.000877 
	C773.112793,66.000877 786.725525,66.000877 800.676270,66.000877 
	C800.676270,69.555641 800.676270,72.947014 800.676270,76.668060 
	C799.736633,76.767067 798.638306,76.982536 797.539673,76.983719 
	C778.429626,77.004280 759.319519,76.990120 740.209473,77.007996 
	C737.486450,77.010544 734.626343,77.414520 734.984497,73.174927 
	C735.292480,69.529716 736.024109,66.164825 740.554443,66.042595 
	C746.532410,65.881317 752.517944,66.001617 759.000183,66.000877 
z"/>
<path fill="#FDFCFC" opacity="1.000000" stroke="none" 
	d="
M339.004852,160.056992 
	C339.004303,166.873505 338.958588,173.199371 339.021820,179.524139 
	C339.054565,182.798309 338.900543,185.296494 334.325684,185.129822 
	C329.968353,184.971054 329.560242,182.366394 329.540955,179.278595 
	C329.494202,171.790497 329.413544,164.292877 329.741333,156.816391 
	C329.899780,153.202896 328.716675,152.336884 325.237915,152.240875 
	C321.584991,152.140106 317.897095,151.170212 314.368164,150.104324 
	C313.399170,149.811630 312.189667,147.606384 312.452362,146.654633 
	C312.756165,145.553955 314.451416,144.554260 315.749725,144.089111 
	C317.103638,143.604080 318.704254,143.726532 320.197266,143.723953 
	C330.017944,143.707001 339.838776,143.754715 349.659363,143.721939 
	C353.005554,143.710770 356.490173,143.823990 356.564392,148.197556 
	C356.642487,152.798248 352.873138,151.947189 349.974487,151.982819 
	C346.505341,152.025452 343.035278,151.992874 339.004852,151.992874 
	C339.004852,154.698120 339.004852,157.132004 339.004852,160.056992 
z"/>
<path fill="#FEFEFE" opacity="1.000000" stroke="none" 
	d="
M293.979614,101.000000 
	C293.979614,109.466400 293.979614,117.432808 293.979614,125.698853 
	C290.711182,125.698853 287.644867,125.698853 284.285645,125.698853 
	C284.285645,106.373581 284.285645,86.989670 284.285645,67.302399 
	C287.289642,67.302399 290.353638,67.302399 293.979645,67.302399 
	C293.979645,78.324966 293.979645,89.412483 293.979614,101.000000 
z"/>
<path fill="#FBF8F8" opacity="1.000000" stroke="none" 
	d="
M456.614502,160.105164 
	C462.195618,160.003799 467.336487,159.857712 472.475220,159.911636 
	C475.401459,159.942368 478.572479,160.498917 478.679291,164.153900 
	C478.800537,168.303574 475.420898,168.489960 472.302277,168.571091 
	C468.657745,168.665894 465.014252,168.848495 461.369507,168.872314 
	C458.794769,168.889160 457.832336,170.026810 458.057465,172.576584 
	C458.261047,174.882141 458.084198,177.219009 458.226715,179.532730 
	C458.434387,182.903976 458.045654,185.170654 453.584839,185.146713 
	C449.100342,185.122604 448.961670,182.601349 448.982086,179.443680 
	C449.003510,176.126602 449.258759,172.781677 448.925720,169.498230 
	C448.359161,163.912827 451.075134,161.182373 456.614502,160.105164 
z"/>
<path fill="#FEFDFD" opacity="1.000000" stroke="none" 
	d="
M732.366577,153.001892 
	C730.498718,152.741882 728.665161,152.943802 727.764954,152.122635 
	C726.063599,150.570816 724.898804,148.430832 723.511047,146.535248 
	C725.618835,145.594269 727.706482,143.897446 729.837830,143.840591 
	C740.162354,143.565201 750.498657,143.710587 760.830627,143.750595 
	C764.030334,143.762985 767.857544,143.752747 767.843994,148.045563 
	C767.831116,152.112885 764.556274,153.090256 760.819336,153.041855 
	C751.488342,152.920959 742.154785,153.001953 732.366577,153.001892 
z"/>
<path fill="#FEFEFE" opacity="1.000000" stroke="none" 
	d="
M506.000610,154.104889 
	C506.000214,163.048141 505.909271,171.508926 506.048828,179.965912 
	C506.097015,182.886490 505.125336,184.373856 502.132538,184.329407 
	C499.358032,184.288208 497.078308,183.384018 497.046570,180.236313 
	C496.941193,169.787674 496.916290,159.336090 497.060150,148.888397 
	C497.101318,145.899887 498.894653,143.935989 502.114136,144.052277 
	C505.325439,144.168259 506.225647,146.244614 506.018463,149.143814 
	C505.912323,150.629028 506.000305,152.128128 506.000610,154.104889 
z"/>
<path fill="#FEFDFD" opacity="1.000000" stroke="none" 
	d="
M469.998566,143.733078 
	C475.316864,143.763214 480.184784,143.411179 484.929932,144.018524 
	C486.802368,144.258179 489.539581,146.408722 489.875397,148.090149 
	C490.479767,151.115799 487.843628,152.035828 484.963440,152.018631 
	C474.162109,151.954147 463.359924,152.027252 452.558624,151.961945 
	C451.301178,151.954361 449.716400,151.777679 448.867310,151.022675 
	C447.525177,149.829361 446.677338,148.080124 445.620331,146.566147 
	C447.265625,145.654739 448.873077,144.047989 450.562988,143.955963 
	C456.860352,143.613068 463.184753,143.767395 469.998566,143.733078 
z"/>
<path fill="#9E060C" opacity="1.000000" stroke="none" 
	d="
M388.882507,152.735931 
	C398.334869,152.747818 398.530029,152.945755 398.460785,161.936081 
	C398.453094,162.933762 398.456970,163.931519 398.454315,164.929245 
	C398.424377,176.197632 398.424316,176.197403 386.842407,176.197647 
	C383.350342,176.197723 379.856232,176.275833 376.366791,176.180466 
	C372.220978,176.067184 369.868378,174.184326 370.089935,169.680359 
	C370.253113,166.362656 370.144257,163.031052 370.138855,159.705673 
	C370.130524,154.587021 371.705231,152.899612 376.929962,152.755798 
	C380.751709,152.650620 384.578644,152.735687 388.882507,152.735931 
z"/>
</svg>